<svg xmlns="http://www.w3.org/2000/svg" viewBox="0 0 256 134">
  <ellipse cx="128" cy="67" rx="128" ry="67" fill="#777BB3"/>
  <g fill="#FFF">
    <path d="M65.4 52.1h-14l-4.5 23.3h13c5.6 0 9.8-1.2 12.6-3.5 2.8-2.3 4.8-6.2 5.8-11.6 1-5.1.4-8.7-1.7-10.8-2.1-2.1-5.8-3.2-11.2-3.2l0 5.8zm-3.5 18.2h-4.4l3-15.5h5c4 0 6.7.7 8.1 2.1 1.4 1.4 1.7 3.8 1 7.2-.8 3.7-2.3 6.3-4.5 7.8-2.3 1.5-5 2.3-8.2 2.3v.1z"/>
    <path d="M108.3 40.6l-2.7 13.8h-13.5l2.7-13.8h-7.3l-7.1 36.5h7.3l3-15.4h13.5l-3 15.4h7.3l7.1-36.5h-7.3z"/>
    <path d="M153.2 52.1h-14l-4.5 23.3h13c5.6 0 9.8-1.2 12.6-3.5 2.8-2.3 4.8-6.2 5.8-11.6 1-5.1.4-8.7-1.7-10.8-2.1-2.1-5.8-3.2-11.2-3.2l0 5.8zm-3.5 18.2h-4.4l3-15.5h5c4 0 6.7.7 8.1 2.1 1.4 1.4 1.7 3.8 1 7.2-.8 3.7-2.3 6.3-4.5 7.8-2.3 1.5-5 2.3-8.2 2.3v.1z"/>
  </g>
</svg>
